<svg width="65" height="9" viewBox="0 0 65 9" fill="none" xmlns="http://www.w3.org/2000/svg">
<path d="M4.31348 0.890625V8H2.85352V0.890625H4.31348ZM6.50098 0.890625V2.03809H0.700195V0.890625H6.50098ZM7.33594 0.890625H9.9873C10.5309 0.890625 10.998 0.972005 11.3887 1.13477C11.7826 1.29753 12.0853 1.53841 12.2969 1.85742C12.5085 2.17643 12.6143 2.56868 12.6143 3.03418C12.6143 3.41504 12.5492 3.74219 12.4189 4.01562C12.292 4.28581 12.1113 4.51204 11.877 4.69434C11.6458 4.87337 11.374 5.0166 11.0615 5.12402L10.5977 5.36816H8.29297L8.2832 4.22559H9.99707C10.2542 4.22559 10.4674 4.18001 10.6367 4.08887C10.806 3.99772 10.9329 3.87077 11.0176 3.70801C11.1055 3.54525 11.1494 3.35645 11.1494 3.1416C11.1494 2.91374 11.1071 2.7168 11.0225 2.55078C10.9378 2.38477 10.8092 2.25781 10.6367 2.16992C10.4642 2.08203 10.2477 2.03809 9.9873 2.03809H8.80078V8H7.33594V0.890625ZM11.3105 8L9.68945 4.83105L11.2373 4.82129L12.8779 7.93164V8H11.3105ZM16.6328 2.10645L14.6992 8H13.1416L15.7832 0.890625H16.7744L16.6328 2.10645ZM18.2393 8L16.3008 2.10645L16.1445 0.890625H17.1455L19.8018 8H18.2393ZM18.1514 5.35352V6.50098H14.3965V5.35352H18.1514ZM22.6436 8H21.0957L21.1055 6.85742H22.6436C23.0277 6.85742 23.3516 6.77116 23.6152 6.59863C23.8789 6.42285 24.0775 6.16732 24.2109 5.83203C24.3477 5.49674 24.416 5.09147 24.416 4.61621V4.26953C24.416 3.90495 24.377 3.58431 24.2988 3.30762C24.224 3.03092 24.1117 2.79818 23.9619 2.60938C23.8122 2.42057 23.6283 2.27897 23.4102 2.18457C23.1921 2.08691 22.9414 2.03809 22.6582 2.03809H21.0664V0.890625H22.6582C23.1335 0.890625 23.568 0.972005 23.9619 1.13477C24.359 1.29427 24.7025 1.52376 24.9922 1.82324C25.2819 2.12272 25.5049 2.48079 25.6611 2.89746C25.8206 3.31087 25.9004 3.77148 25.9004 4.2793V4.61621C25.9004 5.12077 25.8206 5.58138 25.6611 5.99805C25.5049 6.41471 25.2819 6.77279 24.9922 7.07227C24.7057 7.36849 24.3623 7.59798 23.9619 7.76074C23.5648 7.92025 23.1253 8 22.6436 8ZM21.9258 0.890625V8H20.4609V0.890625H21.9258ZM28.5225 0.890625V8H27.0625V0.890625H28.5225ZM34.0156 5.6416H35.4756C35.4463 6.12012 35.3145 6.54492 35.0801 6.91602C34.849 7.28711 34.5251 7.57682 34.1084 7.78516C33.695 7.99349 33.1969 8.09766 32.6143 8.09766C32.1585 8.09766 31.75 8.01953 31.3887 7.86328C31.0273 7.70378 30.7181 7.47591 30.4609 7.17969C30.207 6.88346 30.0133 6.52539 29.8799 6.10547C29.7464 5.68555 29.6797 5.21517 29.6797 4.69434V4.20117C29.6797 3.68034 29.748 3.20996 29.8848 2.79004C30.0247 2.36686 30.2233 2.00716 30.4805 1.71094C30.7409 1.41471 31.0518 1.18685 31.4131 1.02734C31.7744 0.867839 32.1781 0.788086 32.624 0.788086C33.2165 0.788086 33.7161 0.895508 34.123 1.11035C34.5332 1.3252 34.8506 1.62142 35.0752 1.99902C35.3031 2.37663 35.4398 2.80632 35.4854 3.28809H34.0205C34.0042 3.00163 33.9473 2.75911 33.8496 2.56055C33.752 2.35872 33.6038 2.20736 33.4053 2.10645C33.21 2.00228 32.9495 1.9502 32.624 1.9502C32.3799 1.9502 32.1667 1.99577 31.9844 2.08691C31.8021 2.17806 31.6491 2.31641 31.5254 2.50195C31.4017 2.6875 31.3089 2.92188 31.2471 3.20508C31.1885 3.48503 31.1592 3.8138 31.1592 4.19141V4.69434C31.1592 5.06217 31.1868 5.38607 31.2422 5.66602C31.2975 5.94271 31.3822 6.17708 31.4961 6.36914C31.6133 6.55794 31.763 6.70117 31.9453 6.79883C32.1309 6.89323 32.3538 6.94043 32.6143 6.94043C32.9202 6.94043 33.1725 6.8916 33.3711 6.79395C33.5697 6.69629 33.721 6.55143 33.8252 6.35938C33.9326 6.16732 33.9961 5.92806 34.0156 5.6416ZM37.9951 0.890625V8H36.5352V0.890625H37.9951ZM45.207 4.2793V4.61621C45.207 5.15658 45.1338 5.6416 44.9873 6.07129C44.8408 6.50098 44.6341 6.86719 44.3672 7.16992C44.1003 7.4694 43.7812 7.69889 43.4102 7.8584C43.0423 8.0179 42.6338 8.09766 42.1846 8.09766C41.7386 8.09766 41.3301 8.0179 40.959 7.8584C40.5911 7.69889 40.2721 7.4694 40.002 7.16992C39.7318 6.86719 39.5218 6.50098 39.3721 6.07129C39.2256 5.6416 39.1523 5.15658 39.1523 4.61621V4.2793C39.1523 3.73568 39.2256 3.25065 39.3721 2.82422C39.5186 2.39453 39.7253 2.02832 39.9922 1.72559C40.2624 1.42285 40.5814 1.19173 40.9492 1.03223C41.3203 0.872721 41.7288 0.792969 42.1748 0.792969C42.624 0.792969 43.0326 0.872721 43.4004 1.03223C43.7715 1.19173 44.0905 1.42285 44.3574 1.72559C44.6276 2.02832 44.8359 2.39453 44.9824 2.82422C45.1322 3.25065 45.207 3.73568 45.207 4.2793ZM43.7275 4.61621V4.26953C43.7275 3.89193 43.6934 3.5599 43.625 3.27344C43.5566 2.98698 43.4557 2.74609 43.3223 2.55078C43.1888 2.35547 43.026 2.20898 42.834 2.11133C42.6419 2.01042 42.4222 1.95996 42.1748 1.95996C41.9274 1.95996 41.7077 2.01042 41.5156 2.11133C41.3268 2.20898 41.1657 2.35547 41.0322 2.55078C40.902 2.74609 40.8027 2.98698 40.7344 3.27344C40.666 3.5599 40.6318 3.89193 40.6318 4.26953V4.61621C40.6318 4.99056 40.666 5.32259 40.7344 5.6123C40.8027 5.89876 40.9036 6.14128 41.0371 6.33984C41.1706 6.53516 41.3333 6.68327 41.5254 6.78418C41.7174 6.88509 41.9372 6.93555 42.1846 6.93555C42.432 6.93555 42.6517 6.88509 42.8438 6.78418C43.0358 6.68327 43.1969 6.53516 43.3271 6.33984C43.4574 6.14128 43.5566 5.89876 43.625 5.6123C43.6934 5.32259 43.7275 4.99056 43.7275 4.61621ZM52.0479 0.890625V8H50.583L47.7266 3.23438V8H46.2617V0.890625H47.7266L50.5879 5.66113V0.890625H52.0479ZM56.3008 2.10645L54.3672 8H52.8096L55.4512 0.890625H56.4424L56.3008 2.10645ZM57.9072 8L55.9688 2.10645L55.8125 0.890625H56.8135L59.4697 8H57.9072ZM57.8193 5.35352V6.50098H54.0645V5.35352H57.8193ZM64.6992 6.85742V8H61.1201V6.85742H64.6992ZM61.5938 0.890625V8H60.1289V0.890625H61.5938Z" fill="#C47F17"/>
</svg>
